<svg xmlns="http://www.w3.org/2000/svg" xmlns:xlink="http://www.w3.org/1999/xlink" width="412" height="892" viewBox="0 0 412 892">
  <defs>
    <style>
      .cls-1 {
        clip-path: url(#clip-daily-quiz);
      }

      .cls-14, .cls-2 {
        fill: none;
      }

      .cls-2, .cls-3, .cls-7 {
        stroke: #707070;
      }

      .cls-10, .cls-3, .cls-8 {
        fill: #fff;
      }

      .cls-11, .cls-12, .cls-4, .cls-5, .cls-9 {
        stroke: #000;
      }

      .cls-4 {
        font-size: 17px;
      }

      .cls-11, .cls-12, .cls-4, .cls-5, .cls-8 {
        font-family: SegoeUI-Bold, Segoe UI;
        font-weight: 700;
      }

      .cls-5, .cls-8, .cls-9 {
        font-size: 13px;
      }

      .cls-6 {
        fill: #fc0;
      }

      .cls-9 {
        font-family: SegoeUI-Light, Segoe UI;
        font-weight: 300;
      }

      .cls-11, .cls-12 {
        font-size: 38px;
      }

      .cls-12, .cls-15 {
        fill: #d6d6d6;
      }

      .cls-13 {
        stroke: none;
      }
    </style>
    <clipPath id="clip-daily-quiz">
      <rect width="412" height="892"/>
    </clipPath>
  </defs>
  <g id="daily-quiz" class="cls-1">
    <rect class="cls-15" width="412" height="892"/>
    <rect id="Rectangle_26" data-name="Rectangle 26" width="321" height="57" rx="28.5" transform="translate(45 323)"/>
    <line id="Line_1" data-name="Line 1" class="cls-2" x2="597" transform="translate(-96.5 22.5)"/>
    <g id="Icon_ionic-ios-home" data-name="Icon ionic-ios-home" transform="translate(64.626 814.5)">
      <path id="Path_1" data-name="Path 1" d="M18.176,7.32a.276.276,0,0,0-.352,0L6.855,16.095a.3.3,0,0,0-.105.218V32.484a.141.141,0,0,0,.141.141h7.594a.141.141,0,0,0,.141-.141V22.641a.141.141,0,0,1,.141-.141h6.469a.141.141,0,0,1,.141.141v9.844a.141.141,0,0,0,.141.141h7.594a.141.141,0,0,0,.141-.141V16.313a.284.284,0,0,0-.105-.218Z"/>
      <path id="Path_2" data-name="Path 2" d="M32.252,14.358,18.963,3.713a1.543,1.543,0,0,0-1.927,0l-5.787,4.7V5.449a.141.141,0,0,0-.141-.141H6.891a.141.141,0,0,0-.141.141v6.483l-3,2.468a.984.984,0,0,0-.084,1.47.978.978,0,0,0,.7.288.991.991,0,0,0,.619-.218L17.909,5.534A.126.126,0,0,1,18,5.505a.17.17,0,0,1,.091.028L31.022,15.9a.991.991,0,0,0,.619.218,1,1,0,0,0,.991-1.041A1,1,0,0,0,32.252,14.358Z"/>
    </g>
    <path id="Icon_open-badge" data-name="Icon open-badge" d="M9,0a9,9,0,1,0,9,9A9.026,9.026,0,0,0,9,0ZM4.5,21.645V36L9,31.5,13.5,36V21.645A13.547,13.547,0,0,1,9,22.5,13.547,13.547,0,0,1,4.5,21.645Z" transform="translate(156 815)"/>
    <path id="Icon_awesome-user-alt" data-name="Icon awesome-user-alt" d="M18,20.25A10.125,10.125,0,1,0,7.875,10.125,10.128,10.128,0,0,0,18,20.25Zm9,2.25H23.126a12.24,12.24,0,0,1-10.252,0H9a9,9,0,0,0-9,9v1.125A3.376,3.376,0,0,0,3.375,36h29.25A3.376,3.376,0,0,0,36,32.625V31.5A9,9,0,0,0,27,22.5Z" transform="translate(307 815)"/>
    <path id="Icon_awesome-youtube" data-name="Icon awesome-youtube" d="M38.648,8.725a4.825,4.825,0,0,0-3.395-3.417c-2.995-.808-15-.808-15-.808s-12.008,0-15,.808A4.825,4.825,0,0,0,1.852,8.725c-.8,3.014-.8,9.3-.8,9.3s0,6.289.8,9.3a4.753,4.753,0,0,0,3.395,3.362c2.995.808,15,.808,15,.808s12.008,0,15-.808a4.753,4.753,0,0,0,3.395-3.362c.8-3.014.8-9.3.8-9.3s0-6.289-.8-9.3ZM16.323,23.737V12.318l10.036,5.71L16.323,23.737Z" transform="translate(224.875 814.375)"/>
    <g id="Rectangle_24" data-name="Rectangle 24" class="cls-3" transform="translate(14 668)">
      <rect class="cls-13" width="384" height="133"/>
      <rect class="cls-14" x="0.5" y="0.5" width="383" height="132"/>
    </g>
    <text id="ad" class="cls-4" transform="translate(90 751)"><tspan x="0" y="0">ad</tspan></text>
    <text id="Q1:" class="cls-5" transform="translate(46 127)"><tspan x="0" y="0">Q1:</tspan></text>
    <text id="_00:30" data-name="00:30" class="cls-5" transform="translate(329.5 127.5)"><tspan x="0" y="0">00:30</tspan></text>
    <rect id="Rectangle_27" data-name="Rectangle 27" class="cls-6" width="321" height="57" rx="28.5" transform="translate(46 412)"/>
    <g id="Rectangle_32" data-name="Rectangle 32" class="cls-7" transform="translate(46 501)">
      <rect class="cls-13" width="321" height="57" rx="28.5"/>
      <rect class="cls-14" x="0.5" y="0.5" width="320" height="56" rx="28"/>
    </g>
    <g id="Rectangle_35" data-name="Rectangle 35" class="cls-7" transform="translate(46 590)">
      <rect class="cls-13" width="321" height="57" rx="28.5"/>
      <rect class="cls-14" x="0.5" y="0.5" width="320" height="56" rx="28"/>
    </g>
    <text id="option_1" data-name="option 1" class="cls-5" transform="translate(170 357)"><tspan x="0" y="0">option 1</tspan></text>
    <text id="option_2" data-name="option 2" class="cls-5" transform="translate(170 446)"><tspan x="0" y="0">option 2</tspan></text>
    <text id="option_1-2" data-name="option 1" class="cls-8" transform="translate(170 357)"><tspan x="0" y="0">option 1</tspan></text>
    <text id="option_3" data-name="option 3" class="cls-8" transform="translate(170 535)"><tspan x="0" y="0">option 3</tspan></text>
    <text id="option_4" data-name="option 4" class="cls-8" transform="translate(170 624)"><tspan x="0" y="0">option 4</tspan></text>
    <text id="Qustion_Lorem_Ipsum_lorem_ipsum_lorem_ipsum_lorem_ipsum_Qustion_Lorem_Ipsum_lorem_ipsum_lorem_lorem_ipsum_lorem_ipsum..._..._Qustion_Lorem_Ipsum..._..._lorem_ipsum_lorem_ipsum..._.._Qustion_Lorem_Ipsum_lorem" data-name="Qustion Lorem Ipsum
lorem ipsum lorem ipsum lorem ipsum
Qustion Lorem Ipsum lorem ipsum lorem
lorem ipsum lorem ipsum...………………...
Qustion Lorem Ipsum...……………………...
lorem ipsum lorem ipsum...………………..
Qustion Lorem Ipsum;;;;;;;;;;;;;;;;;;;;;;;;;;;;;;;;
lorem" class="cls-9" transform="translate(81 140)"><tspan x="0" y="0">Qustion Lorem Ipsum</tspan><tspan x="0" y="17">lorem ipsum lorem ipsum lorem ipsum</tspan><tspan x="0" y="34">Qustion Lorem Ipsum lorem ipsum lorem</tspan><tspan x="0" y="51">lorem ipsum lorem ipsum...………………...</tspan><tspan x="0" y="68">Qustion Lorem Ipsum...……………………...</tspan><tspan x="0" y="85">lorem ipsum lorem ipsum...………………..</tspan><tspan x="0" y="102">Qustion Lorem Ipsum;;;;;;;;;;;;;;;;;;;;;;;;;;;;;;;;</tspan><tspan x="0" y="119">lorem ipsum lorem ipsum...……………….</tspan><tspan x="0" y="136">lorem ipsum...…………………………………..</tspan><tspan x="0" y="153">lorem ipsum...…………………………………..</tspan></text>
    <rect id="Rectangle_22" data-name="Rectangle 22" width="412" height="51" rx="18" transform="translate(0 807)"/>
    <g id="Icon_ionic-ios-home-2" data-name="Icon ionic-ios-home" transform="translate(64.626 814.5)">
      <path id="Path_1-2" data-name="Path 1" class="cls-10" d="M18.176,7.32a.276.276,0,0,0-.352,0L6.855,16.095a.3.3,0,0,0-.105.218V32.484a.141.141,0,0,0,.141.141h7.594a.141.141,0,0,0,.141-.141V22.641a.141.141,0,0,1,.141-.141h6.469a.141.141,0,0,1,.141.141v9.844a.141.141,0,0,0,.141.141h7.594a.141.141,0,0,0,.141-.141V16.313a.284.284,0,0,0-.105-.218Z"/>
      <path id="Path_2-2" data-name="Path 2" class="cls-10" d="M32.252,14.358,18.963,3.713a1.543,1.543,0,0,0-1.927,0l-5.787,4.7V5.449a.141.141,0,0,0-.141-.141H6.891a.141.141,0,0,0-.141.141v6.483l-3,2.468a.984.984,0,0,0-.084,1.47.978.978,0,0,0,.7.288.991.991,0,0,0,.619-.218L17.909,5.534A.126.126,0,0,1,18,5.505a.17.17,0,0,1,.091.028L31.022,15.9a.991.991,0,0,0,.619.218,1,1,0,0,0,.991-1.041A1,1,0,0,0,32.252,14.358Z"/>
    </g>
    <path id="Icon_open-badge-2" data-name="Icon open-badge" class="cls-10" d="M9,0a9,9,0,1,0,9,9A9.026,9.026,0,0,0,9,0ZM4.5,21.645V36L9,31.5,13.5,36V21.645A13.547,13.547,0,0,1,9,22.5,13.547,13.547,0,0,1,4.5,21.645Z" transform="translate(156 815)"/>
    <path id="Icon_awesome-user-alt-2" data-name="Icon awesome-user-alt" class="cls-10" d="M18,20.25A10.125,10.125,0,1,0,7.875,10.125,10.128,10.128,0,0,0,18,20.25Zm9,2.25H23.126a12.24,12.24,0,0,1-10.252,0H9a9,9,0,0,0-9,9v1.125A3.376,3.376,0,0,0,3.375,36h29.25A3.376,3.376,0,0,0,36,32.625V31.5A9,9,0,0,0,27,22.5Z" transform="translate(307 815)"/>
    <path id="Icon_awesome-youtube-2" data-name="Icon awesome-youtube" class="cls-10" d="M38.648,8.725a4.825,4.825,0,0,0-3.395-3.417c-2.995-.808-15-.808-15-.808s-12.008,0-15,.808A4.825,4.825,0,0,0,1.852,8.725c-.8,3.014-.8,9.3-.8,9.3s0,6.289.8,9.3a4.753,4.753,0,0,0,3.395,3.362c2.995.808,15,.808,15,.808s12.008,0,15-.808a4.753,4.753,0,0,0,3.395-3.362c.8-3.014.8-9.3.8-9.3s0-6.289-.8-9.3ZM16.323,23.737V12.318l10.036,5.71L16.323,23.737Z" transform="translate(224.875 814.375)"/>
    <text id="DAILY" class="cls-11" transform="translate(45 71)"><tspan x="0" y="0">DAILY</tspan></text>
    <text id="QUIZ" class="cls-12" transform="translate(159 98)"><tspan x="0" y="0">QUIZ</tspan></text>
    <path id="Path_4" data-name="Path 4" class="cls-2" d="M54,2V70" transform="translate(101 38)"/>
  </g>
</svg>
